# xmcd
#
# Track frame offsets: 
#        150
#        16379
#        30377
#        45447
#        59803
#        72490
#        88554
#        100204
#        115639
#        130616
#        143929
#        163051
#
# Disc length: 2393 seconds
#
# Revision: 0
# Processed by: cddbd v1.5.2PL0 Copyright (c) Steve Scherf et al.
# Submitted via: ExactAudioCopy v0.99pb5
#
DISCID=9e09570c
DTITLE=Cash Cash - Take It To The Floor
DYEAR=2008
DGENRE=Powerpop
TTITLE0=Breakout
TTITLE1=Sugar Rush
TTITLE2=Party In Your Bedroom
TTITLE3=Cash Cash
TTITLE4=Can't Stop Looking
TTITLE5=Electric Hearts
TTITLE6=Interlude
TTITLE7=Concerta
TTITLE8=Two Days Old
TTITLE9=Your Love
TTITLE10=Radio
TTITLE11=Dynamite
EXTD=
EXTT0=
EXTT1=
EXTT2=
EXTT3=
EXTT4=
EXTT5=
EXTT6=
EXTT7=
EXTT8=
EXTT9=
EXTT10=
EXTT11=
PLAYORDER=
